<svg width="512" height="512" version="1.1" xmlns="http://www.w3.org/2000/svg" desc="Created with imagetracer.js version 1.2.6" ><path fill="rgb(0,0,0)" stroke="rgb(0,0,0)" stroke-width="1" opacity="0" d="M 0 0 L 512 0 L 512 512 L 0 512 L 0 0 Z M 26 8 L 19 11 Q 11 16 8 26 Q 6 39 11 46 Q 16 53 26 56 Q 39 58 46 53 Q 53 48 56 39 Q 58 25 53 19 Q 47 6 26 8 Z M 248 8 L 248 88 L 360 88 L 360 88 L 360 56 L 376 56 L 376 88 L 488 88 L 488 8 L 377 8 L 376 9 L 376 40 L 360 40 L 360 9 L 360 8 L 248 8 Z M 202 24 L 195 27 Q 187 32 184 42 Q 182 55 187 62 Q 192 69 202 72 Q 215 74 222 69 Q 229 64 232 55 Q 234 41 229 35 Q 223 22 202 24 Z M 136 40 L 136 96 L 105 96 L 104 97 L 104 152 L 120 152 L 120 112 L 152 112 L 152 57 L 153 56 L 168 56 L 168 40 L 136 40 Z M 24 64 L 24 128 L 72 128 L 72 152 L 88 152 L 88 112 L 40 112 L 40 64 L 24 64 Z M 424 104 L 424 216 L 425 216 L 440 216 L 440 105 L 440 104 L 424 104 Z M 472 104 L 472 168 L 473 168 L 488 168 L 488 105 L 488 104 L 472 104 Z M 168 120 L 168 152 Q 162 151 159 154 L 152 163 Q 153 168 152 168 L 120 168 L 120 184 L 152 184 L 152 200 L 120 200 L 120 216 L 152 216 L 152 232 L 120 232 L 120 248 L 152 248 L 152 264 L 120 264 L 120 280 L 152 280 L 152 296 L 120 296 L 120 312 L 152 312 L 152 328 L 120 328 L 120 344 L 152 344 Q 151 350 154 354 L 163 360 Q 168 359 168 361 L 168 392 L 184 392 L 184 360 L 200 360 L 200 392 L 216 392 L 216 360 L 232 360 L 232 392 L 248 392 L 248 360 L 264 360 L 264 392 L 280 392 L 280 360 L 296 360 L 296 392 L 312 392 L 312 360 L 328 360 L 328 392 L 344 392 L 344 360 Q 350 361 354 358 L 360 350 Q 359 344 361 344 L 392 344 L 392 328 L 360 328 L 360 312 L 392 312 L 392 296 L 360 296 L 360 280 L 392 280 L 392 264 L 360 264 L 360 248 L 392 248 L 392 232 L 360 232 L 360 216 L 392 216 L 392 200 L 360 200 L 360 184 L 392 184 L 392 168 L 360 168 Q 361 162 358 159 L 350 152 Q 344 153 344 152 L 344 120 L 328 120 L 328 152 L 312 152 L 312 120 L 296 120 L 296 152 L 280 152 L 280 120 L 264 120 L 264 152 L 248 152 L 248 120 L 232 120 L 232 152 L 216 152 L 216 120 L 200 120 L 200 152 L 184 152 L 184 120 L 168 120 Z M 72 168 L 72 192 L 25 192 L 24 193 L 24 312 L 40 312 L 40 312 L 40 208 L 88 208 L 88 168 L 72 168 Z M 474 184 L 467 187 Q 459 192 456 202 Q 454 215 459 222 Q 464 229 474 232 Q 487 234 494 229 Q 501 224 504 215 Q 506 201 501 195 Q 495 182 474 184 Z M 74 224 L 67 227 Q 59 232 56 242 Q 54 255 59 262 Q 64 269 74 272 Q 87 274 94 269 Q 101 264 104 255 Q 106 241 101 235 Q 95 222 74 224 Z M 426 232 L 419 235 Q 411 240 408 250 Q 406 263 411 270 Q 416 277 426 280 Q 440 282 447 276 Q 453 272 455 264 L 472 264 L 472 265 L 472 440 L 473 440 L 488 440 L 488 249 L 488 248 L 455 248 L 452 242 L 442 233 Q 436 230 426 232 Z M 72 288 L 72 368 L 73 368 L 88 368 L 88 289 L 88 288 L 72 288 Z M 424 296 L 424 440 L 264 440 L 264 456 L 265 456 L 440 456 L 440 297 L 440 296 L 424 296 Z M 26 328 L 19 331 Q 11 336 8 346 Q 6 359 11 366 Q 16 373 26 376 Q 39 378 46 373 Q 53 368 56 359 Q 58 345 53 339 Q 47 326 26 328 Z M 24 392 L 24 408 L 8 408 L 8 488 L 9 488 L 24 488 L 24 504 L 40 504 L 40 488 L 56 488 L 56 504 L 72 504 L 72 488 L 88 488 L 88 504 L 104 504 L 104 488 L 120 488 L 120 409 L 120 408 L 104 408 L 104 392 L 88 392 L 88 408 L 72 408 L 72 392 L 56 392 L 56 408 L 40 408 L 40 392 L 24 392 Z M 154 424 L 147 427 Q 139 432 136 442 Q 134 455 139 462 Q 144 469 154 472 Q 167 474 174 469 Q 181 464 184 455 Q 186 441 181 435 Q 175 422 154 424 Z M 218 424 L 211 427 Q 203 432 200 442 Q 198 455 203 462 Q 208 469 218 472 Q 231 474 238 469 Q 245 464 248 455 Q 250 441 245 435 Q 239 422 218 424 Z M 474 456 L 467 459 Q 459 464 456 474 Q 454 487 459 494 Q 464 501 474 504 Q 487 506 494 501 Q 501 496 504 487 Q 506 473 501 467 Q 495 454 474 456 Z M 328 472 L 328 488 L 329 488 L 440 488 L 440 473 L 440 472 L 328 472 Z " /><path fill="rgb(0,0,0)" stroke="rgb(0,0,0)" stroke-width="1" opacity="0" d="M 264 24 L 344 24 L 344 72 L 264 72 L 264 24 Z M 280 40 L 280 56 L 296 56 L 296 40 L 280 40 Z M 312 40 L 312 56 L 328 56 L 328 40 L 312 40 Z " /><path fill="rgb(0,0,0)" stroke="rgb(0,0,0)" stroke-width="1" opacity="0" d="M 392 24 L 472 24 L 472 72 L 392 72 L 392 24 Z M 408 40 L 408 56 L 424 56 L 424 40 L 408 40 Z M 440 40 L 440 56 L 456 56 L 456 40 L 440 40 Z " /><path fill="rgb(0,0,0)" stroke="rgb(0,0,0)" stroke-width="1" opacity="0" d="M 29.5 25 Q 36 24 38 27.5 L 39 34.5 L 36.5 38 L 29.5 39 L 26 36.5 L 25 29.5 L 27.5 26 L 29.5 25 Z " /><path fill="rgb(0,0,0)" stroke="rgb(0,0,0)" stroke-width="1" opacity="0" d="M 205.5 41 Q 212 40 214 43.5 L 215 50.5 L 212.5 54 L 205.5 55 L 202 52.5 L 201 45.5 L 203.5 42 L 205.5 41 Z " /><path fill="rgb(0,0,0)" stroke="rgb(0,0,0)" stroke-width="1" opacity="0" d="M 168 168 L 344 168 L 344 344 L 168 344 L 168 168 Z M 298 184 L 291 187 Q 283 192 280 202 Q 278 215 283 222 Q 288 229 298 232 Q 311 234 318 229 Q 325 224 328 215 Q 330 201 325 195 Q 319 182 298 184 Z M 200 200 L 200 264 L 216 264 L 216 216 L 264 216 L 264 201 L 264 200 L 200 200 Z M 296 248 L 296 296 L 248 296 L 248 312 L 249 312 L 312 312 L 312 249 L 312 248 L 296 248 Z M 202 280 L 195 283 Q 187 288 184 298 Q 182 311 187 318 Q 192 325 202 328 Q 215 330 222 325 Q 229 320 232 311 Q 234 297 229 291 Q 223 278 202 280 Z " /><path fill="rgb(0,0,0)" stroke="rgb(0,0,0)" stroke-width="1" opacity="0" d="M 301.5 201 Q 308 200 310 203.5 L 311 210.5 L 308.5 214 L 301.5 215 L 298 212.5 L 297 205.5 L 299.5 202 L 301.5 201 Z " /><path fill="rgb(0,0,0)" stroke="rgb(0,0,0)" stroke-width="1" opacity="0" d="M 477.5 201 Q 484 200 486 203.5 L 487 210.5 L 484.5 214 L 477.5 215 L 474 212.5 L 473 205.5 L 475.5 202 L 477.5 201 Z " /><path fill="rgb(0,0,0)" stroke="rgb(0,0,0)" stroke-width="1" opacity="0" d="M 77.5 241 Q 84 240 86 243.5 L 87 250.5 L 84.5 254 L 77.5 255 L 74 252.5 L 73 245.5 L 75.5 242 L 77.5 241 Z " /><path fill="rgb(0,0,0)" stroke="rgb(0,0,0)" stroke-width="1" opacity="0" d="M 429.5 249 Q 436 248 438 251.5 L 439 258.5 L 436.5 262 L 429.5 263 L 426 260.5 L 425 253.5 L 427.5 250 L 429.5 249 Z " /><path fill="rgb(0,0,0)" stroke="rgb(0,0,0)" stroke-width="1" opacity="0" d="M 205.5 297 Q 212 296 214 299.5 L 215 306.5 L 212.5 310 L 205.5 311 L 202 308.5 L 201 301.5 L 203.5 298 L 205.5 297 Z " /><path fill="rgb(0,0,0)" stroke="rgb(0,0,0)" stroke-width="1" opacity="0" d="M 29.5 345 Q 36 344 38 347.5 L 39 354.5 L 36.5 358 L 29.5 359 L 26 356.5 L 25 349.5 L 27.5 346 L 29.5 345 Z " /><path fill="rgb(0,0,0)" stroke="rgb(0,0,0)" stroke-width="1" opacity="0" d="M 24 424 L 104 424 L 104 472 L 24 472 L 24 424 Z M 40 440 L 40 456 L 56 456 L 56 440 L 40 440 Z M 72 440 L 72 456 L 88 456 L 88 440 L 72 440 Z " /><path fill="rgb(0,0,0)" stroke="rgb(0,0,0)" stroke-width="1" opacity="0" d="M 157.5 441 Q 164 440 166 443.5 L 167 450.5 L 164.5 454 L 157.5 455 L 154 452.5 L 153 445.5 L 155.5 442 L 157.5 441 Z " /><path fill="rgb(0,0,0)" stroke="rgb(0,0,0)" stroke-width="1" opacity="0" d="M 221.5 441 Q 228 440 230 443.5 L 231 450.5 L 228.5 454 L 221.5 455 L 218 452.5 L 217 445.5 L 219.5 442 L 221.5 441 Z " /><path fill="rgb(0,0,0)" stroke="rgb(0,0,0)" stroke-width="1" opacity="0" d="M 477.5 473 Q 484 472 486 475.5 L 487 482.5 L 484.5 486 L 477.5 487 L 474 484.5 L 473 477.5 L 475.5 474 L 477.5 473 Z " /><path fill="rgb(43,148,220)" stroke="rgb(43,148,220)" stroke-width="1" opacity="0.9882352941176471" d="M 25.5 8 Q 46.7 5.8 53 18.5 Q 57.9 25 56 38.5 Q 53.3 48.2 45.5 53 Q 38.9 57.9 25.5 56 Q 15.8 53.3 11 45.5 Q 6 38.9 8 25.5 Q 10.8 15.8 18.5 11 L 25.5 8 Z M 30 25 L 28 26 L 25 30 L 26 37 L 30 39 L 37 38 L 39 35 L 38 28 Q 36 24 30 25 Z " /><path fill="rgb(43,148,220)" stroke="rgb(43,148,220)" stroke-width="1" opacity="0.9882352941176471" d="M 248 8 L 359.5 8 L 360 8.5 L 360 40 L 376 40 L 376 8.5 L 376.5 8 L 488 8 L 488 88 L 376 88 L 376 56 L 360 56 L 360 87.5 L 359.5 88 L 248 88 L 248 8 Z M 264 24 L 264 72 L 344 72 L 344 24 L 264 24 Z M 392 24 L 392 72 L 472 72 L 472 24 L 392 24 Z " /><path fill="rgb(43,148,220)" stroke="rgb(43,148,220)" stroke-width="1" opacity="0.9882352941176471" d="M 201.5 24 Q 222.7 21.8 229 34.5 Q 233.9 41 232 54.5 Q 229.3 64.3 221.5 69 Q 214.9 73.9 201.5 72 Q 191.8 69.3 187 61.5 Q 182 54.9 184 41.5 Q 186.8 31.7 194.5 27 L 201.5 24 Z M 206 41 L 204 42 L 201 46 L 202 53 L 206 55 L 213 54 L 215 51 L 214 44 Q 212 40 206 41 Z " /><path fill="rgb(43,148,220)" stroke="rgb(43,148,220)" stroke-width="1" opacity="0.9882352941176471" d="M 136 40 L 168 40 L 168 56 L 152.5 56 L 152 56.5 L 152 112 L 120 112 L 120 152 L 104 152 L 104 96.5 L 104.5 96 L 136 96 L 136 40 Z " /><path fill="rgb(43,148,220)" stroke="rgb(43,148,220)" stroke-width="1" opacity="0.9882352941176471" d="M 280 40 L 296 40 L 296 56 L 280 56 L 280 40 Z " /><path fill="rgb(43,148,220)" stroke="rgb(43,148,220)" stroke-width="1" opacity="0.9882352941176471" d="M 312 40 L 328 40 L 328 56 L 312 56 L 312 40 Z " /><path fill="rgb(43,148,220)" stroke="rgb(43,148,220)" stroke-width="1" opacity="0.9882352941176471" d="M 408 40 L 424 40 L 424 56 L 408 56 L 408 40 Z " /><path fill="rgb(43,148,220)" stroke="rgb(43,148,220)" stroke-width="1" opacity="0.9882352941176471" d="M 440 40 L 456 40 L 456 56 L 440 56 L 440 40 Z " /><path fill="rgb(43,148,220)" stroke="rgb(43,148,220)" stroke-width="1" opacity="0.9882352941176471" d="M 24 64 L 40 64 L 40 112 L 88 112 L 88 152 L 72 152 L 72 128 L 24 128 L 24 64 Z " /><path fill="rgb(43,148,220)" stroke="rgb(43,148,220)" stroke-width="1" opacity="0.9882352941176471" d="M 424 104 L 439.5 104 L 440 104.5 L 440 208 L 424.5 208 L 424 207.5 L 424 104 Z " /><path fill="rgb(43,148,220)" stroke="rgb(43,148,220)" stroke-width="1" opacity="0.9882352941176471" d="M 472 104 L 487.5 104 L 488 104.5 L 488 168 L 472.5 168 L 472 167.5 L 472 104 Z " /><path fill="rgb(43,148,220)" stroke="rgb(43,148,220)" stroke-width="1" opacity="0.9882352941176471" d="M 168 120 L 184 120 L 184 152 L 200 152 L 200 120 L 216 120 L 216 152 L 232 152 L 232 120 L 248 120 L 248 152 L 264 152 L 264 120 L 280 120 L 280 152 L 296 152 L 296 120 L 312 120 L 312 152 L 328 152 L 328 120 L 344 120 L 344 151.5 Q 344.1 152.6 349.5 152 L 358 158.5 Q 361 161.8 360 168 L 392 168 L 392 184 L 360 184 L 360 200 L 391.5 200 L 392 200.5 L 392 208 L 344 208 L 344 168.5 L 343.5 168 L 168 168 L 168 208 L 120 208 L 120 200.5 L 120.5 200 L 152 200 L 152 184 L 120 184 L 120 168 L 151.5 168 Q 152.6 167.9 152 162.5 L 158.5 154 Q 161.8 151 168 152 L 168 120 Z " /><path fill="rgb(43,148,220)" stroke="rgb(43,148,220)" stroke-width="1" opacity="0.9882352941176471" d="M 72 168 L 88 168 L 88 208 L 24.5 208 L 24 207.5 L 24 192 L 72 192 L 72 168 Z " /><path fill="rgb(43,148,220)" stroke="rgb(43,148,220)" stroke-width="1" opacity="0.9882352941176471" d="M 297.5 184 L 313.5 185 L 325 194.5 L 328 204.5 L 327 208 L 312.5 208 L 312 205.5 Q 309.9 200.7 303.5 200 L 296 204 L 297 207.5 L 281 208 L 280 203.5 Q 281.9 191.9 290.5 187 L 297.5 184 Z " /><path fill="rgb(43,148,220)" stroke="rgb(43,148,220)" stroke-width="1" opacity="0.9882352941176471" d="M 473.5 184 L 489.5 185 L 501 194.5 L 504 204.5 L 503 208 L 488.5 208 L 488 205.5 Q 485.9 200.7 479.5 200 L 472 204 L 473 207.5 L 457 208 L 456 203.5 Q 457.9 191.9 466.5 187 L 473.5 184 Z " /><path fill="rgb(43,148,220)" stroke="rgb(43,148,220)" stroke-width="1" opacity="0.9882352941176471" d="M 200 200 L 263.5 200 L 264 200.5 L 264 208 L 200.5 208 L 200 207.5 L 200 200 Z " /><path fill="rgb(98,100,236)" stroke="rgb(98,100,236)" stroke-width="1" opacity="0.9803921568627451" d="M 280.5 204 L 281 208 L 296.5 208 L 297 210.5 L 299.5 214 L 304.5 216 L 310 212.5 L 311 205.5 L 310.5 204 L 312 208 L 326.5 208 L 327 205.5 L 328 205.5 L 327 217.5 L 318.5 228 Q 312.2 234.2 297.5 232 Q 288.2 228.8 283 221.5 L 280 214.5 L 280.5 204 Z " /><path fill="rgb(98,100,236)" stroke="rgb(98,100,236)" stroke-width="1" opacity="0.9803921568627451" d="M 296 204 L 298 204.5 L 296.5 207 L 296 204 Z " /><path fill="rgb(98,100,236)" stroke="rgb(98,100,236)" stroke-width="1" opacity="0.9803921568627451" d="M 456.5 204 L 457 208 L 472.5 208 L 473 210.5 L 475.5 214 L 480.5 216 L 486 212.5 L 487 205.5 L 486.5 204 L 488 208 L 502.5 208 L 503 205.5 L 504 205.5 L 503 217.5 L 494.5 228 Q 488.2 234.2 473.5 232 Q 464.2 228.8 459 221.5 L 456 214.5 L 456.5 204 Z " /><path fill="rgb(98,100,236)" stroke="rgb(98,100,236)" stroke-width="1" opacity="0.9803921568627451" d="M 472 204 L 474 204.5 L 472.5 207 L 472 204 Z " /><path fill="rgb(98,100,236)" stroke="rgb(98,100,236)" stroke-width="1" opacity="0.9803921568627451" d="M 24 208 L 39.5 208 L 40 208.5 L 40 312 L 24.5 312 L 24 311.5 L 24 208 Z " /><path fill="rgb(98,100,236)" stroke="rgb(98,100,236)" stroke-width="1" opacity="0.9803921568627451" d="M 120 208 L 168 208 L 168 344 L 344 344 L 344 208 L 392 208 L 392 215.5 L 391.5 216 L 360 216 L 360 232 L 392 232 L 392 248 L 360 248 L 360 264 L 392 264 L 392 280 L 360 280 L 360 296 L 392 296 L 392 312 L 360 312 L 360 328 L 392 328 L 392 344 L 360.5 344 Q 359.4 344.1 360 349.5 L 354.5 357 Q 351.3 361.1 344 360 L 344 372 L 328 372 L 328 360 L 312 360 L 312 372 L 296 372 L 296 360 L 280 360 L 280 372 L 264 372 L 264 360 L 248 360 L 248 372 L 232 372 L 232 360 L 216 360 L 216 372 L 200 372 L 200 360 L 184 360 L 184 372 L 168 372 L 168 360 L 162.5 360 L 155 354.5 Q 150.9 351.3 152 344 L 120 344 L 120 328 L 152 328 L 152 312 L 120 312 L 120 296 L 152 296 L 152 280 L 120 280 L 120 264 L 152 264 L 152 248 L 120 248 L 120 232 L 152 232 L 152 216 L 120.5 216 L 120 215.5 L 120 208 Z " /><path fill="rgb(98,100,236)" stroke="rgb(98,100,236)" stroke-width="1" opacity="0.9803921568627451" d="M 200 208 L 263.5 208 L 264 208.5 L 264 216 L 216 216 L 216 264 L 200 264 L 200 208 Z " /><path fill="rgb(98,100,236)" stroke="rgb(98,100,236)" stroke-width="1" opacity="0.9803921568627451" d="M 424 208 L 440 208 L 440 216 L 424 216 L 424 208 Z " /><path fill="rgb(98,100,236)" stroke="rgb(98,100,236)" stroke-width="1" opacity="0.9803921568627451" d="M 73.5 224 Q 93.7 221.8 100 233.5 Q 106.2 239.8 104 254.5 Q 101.2 263.2 94.5 268 Q 88.2 274.2 73.5 272 Q 64.2 268.8 59 261.5 Q 54 254.9 56 241.5 Q 58.7 231.8 66.5 227 L 73.5 224 Z M 78 241 L 76 242 L 73 246 L 74 253 L 78 255 L 85 254 L 87 251 L 86 244 Q 84 240 78 241 Z " /><path fill="rgb(98,100,236)" stroke="rgb(98,100,236)" stroke-width="1" opacity="0.9803921568627451" d="M 425.5 232 Q 435.6 230.4 441.5 233 L 452 241.5 L 455 248 L 487.5 248 L 488 248.5 L 488 372 L 472.5 372 L 472 371.5 L 472 264.5 L 471.5 264 L 455 264 Q 452.9 271.6 446.5 276 Q 440.2 282.2 425.5 280 Q 416.2 276.8 411 269.5 Q 406 262.9 408 249.5 Q 410.4 240.4 417.5 236 L 425.5 232 Z M 430 249 L 428 250 L 425 254 L 426 261 L 430 263 L 437 262 L 439 259 L 438 252 Q 436 248 430 249 Z " /><path fill="rgb(98,100,236)" stroke="rgb(98,100,236)" stroke-width="1" opacity="0.9803921568627451" d="M 296 248 L 311.5 248 L 312 248.5 L 312 312 L 248.5 312 L 248 311.5 L 248 296 L 296 296 L 296 248 Z " /><path fill="rgb(98,100,236)" stroke="rgb(98,100,236)" stroke-width="1" opacity="0.9803921568627451" d="M 201.5 280 Q 221.7 277.8 228 289.5 Q 234.2 295.8 232 310.5 Q 229.5 319.5 222.5 324 Q 216.2 330.2 201.5 328 Q 192.2 324.8 187 317.5 Q 182 310.9 184 297.5 Q 186.4 288.4 193.5 284 L 201.5 280 Z M 206 297 L 204 298 L 201 302 L 202 309 L 206 311 L 213 310 L 215 307 L 214 300 Q 212 296 206 297 Z " /><path fill="rgb(98,100,236)" stroke="rgb(98,100,236)" stroke-width="1" opacity="0.9803921568627451" d="M 72 288 L 87.5 288 L 88 288.5 L 88 368 L 72.5 368 L 72 367.5 L 72 288 Z " /><path fill="rgb(98,100,236)" stroke="rgb(98,100,236)" stroke-width="1" opacity="0.9803921568627451" d="M 424 296 L 439.5 296 L 440 296.5 L 440 372 L 424.5 372 L 424 371.5 L 424 296 Z " /><path fill="rgb(98,100,236)" stroke="rgb(98,100,236)" stroke-width="1" opacity="0.9803921568627451" d="M 25.5 328 Q 35.6 326.4 41.5 329 L 52 337.5 Q 58.2 343.8 56 358.5 Q 53.9 365.9 48.5 370 Q 46.3 369.3 47 371.5 L 44.5 372 L 17.5 372 L 16 370.5 Q 16.8 368.3 14.5 369 Q 5.5 363 8 345.5 Q 10.4 336.4 17.5 332 L 25.5 328 Z M 30 345 L 28 346 L 25 350 L 26 357 L 30 359 L 37 358 L 39 355 L 38 348 Q 36 344 30 345 Z " /><path fill="rgb(140,63,249)" stroke="rgb(140,63,249)" stroke-width="1" opacity="0.9803921568627451" d="M 45.5 371 L 46 373 L 37.5 376 L 26.5 376 L 22 375 L 21.5 373 L 19.5 373 L 18 372.5 L 44.5 372 L 45.5 371 Z " /><path fill="rgb(140,63,249)" stroke="rgb(140,63,249)" stroke-width="1" opacity="0.9803921568627451" d="M 168 372 L 184 372 L 184 392 L 168 392 L 168 372 Z " /><path fill="rgb(140,63,249)" stroke="rgb(140,63,249)" stroke-width="1" opacity="0.9803921568627451" d="M 200 372 L 216 372 L 216 392 L 200 392 L 200 372 Z " /><path fill="rgb(140,63,249)" stroke="rgb(140,63,249)" stroke-width="1" opacity="0.9803921568627451" d="M 232 372 L 248 372 L 248 392 L 232 392 L 232 372 Z " /><path fill="rgb(140,63,249)" stroke="rgb(140,63,249)" stroke-width="1" opacity="0.9803921568627451" d="M 264 372 L 280 372 L 280 392 L 264 392 L 264 372 Z " /><path fill="rgb(140,63,249)" stroke="rgb(140,63,249)" stroke-width="1" opacity="0.9803921568627451" d="M 296 372 L 312 372 L 312 392 L 296 392 L 296 372 Z " /><path fill="rgb(140,63,249)" stroke="rgb(140,63,249)" stroke-width="1" opacity="0.9803921568627451" d="M 328 372 L 344 372 L 344 392 L 328 392 L 328 372 Z " /><path fill="rgb(140,63,249)" stroke="rgb(140,63,249)" stroke-width="1" opacity="0.9803921568627451" d="M 424 372 L 439.5 372 L 440 372.5 L 440 456 L 264.5 456 L 264 455.5 L 264 440 L 424 440 L 424 372 Z " /><path fill="rgb(140,63,249)" stroke="rgb(140,63,249)" stroke-width="1" opacity="0.9803921568627451" d="M 472 372 L 487.5 372 L 488 372.5 L 488 440 L 472.5 440 L 472 439.5 L 472 372 Z " /><path fill="rgb(140,63,249)" stroke="rgb(140,63,249)" stroke-width="1" opacity="0.9803921568627451" d="M 24 392 L 40 392 L 40 408 L 56 408 L 56 392 L 72 392 L 72 408 L 88 408 L 88 392 L 104 392 L 104 408 L 119.5 408 L 120 408.5 L 120 488 L 104 488 L 104 504 L 88 504 L 88 488 L 72 488 L 72 504 L 56 504 L 56 488 L 40 488 L 40 504 L 24 504 L 24 488 L 8.5 488 L 8 487.5 L 8 408 L 24 408 L 24 392 Z M 24 424 L 24 472 L 104 472 L 104 424 L 24 424 Z " /><path fill="rgb(140,63,249)" stroke="rgb(140,63,249)" stroke-width="1" opacity="0.9803921568627451" d="M 153.5 424 Q 174.7 421.8 181 434.5 Q 185.9 441 184 454.5 Q 181.3 464.2 173.5 469 Q 166.9 473.9 153.5 472 Q 143.8 469.3 139 461.5 Q 134 454.9 136 441.5 Q 138.8 431.8 146.5 427 L 153.5 424 Z M 158 441 L 156 442 L 153 446 L 154 453 L 158 455 L 165 454 L 167 451 L 166 444 Q 164 440 158 441 Z " /><path fill="rgb(140,63,249)" stroke="rgb(140,63,249)" stroke-width="1" opacity="0.9803921568627451" d="M 217.5 424 Q 238.7 421.8 245 434.5 Q 249.9 441 248 454.5 Q 245.3 464.2 237.5 469 Q 230.9 473.9 217.5 472 Q 207.8 469.3 203 461.5 Q 198 454.9 200 441.5 Q 202.8 431.8 210.5 427 L 217.5 424 Z M 222 441 L 220 442 L 217 446 L 218 453 L 222 455 L 229 454 L 231 451 L 230 444 Q 228 440 222 441 Z " /><path fill="rgb(140,63,249)" stroke="rgb(140,63,249)" stroke-width="1" opacity="0.9803921568627451" d="M 40 440 L 56 440 L 56 456 L 40 456 L 40 440 Z " /><path fill="rgb(140,63,249)" stroke="rgb(140,63,249)" stroke-width="1" opacity="0.9803921568627451" d="M 72 440 L 88 440 L 88 456 L 72 456 L 72 440 Z " /><path fill="rgb(140,63,249)" stroke="rgb(140,63,249)" stroke-width="1" opacity="0.9803921568627451" d="M 473.5 456 Q 494.7 453.8 501 466.5 Q 505.9 473 504 486.5 Q 501.2 496.3 493.5 501 Q 486.9 505.9 473.5 504 Q 463.8 501.2 459 493.5 Q 454 486.9 456 473.5 Q 458.8 463.8 466.5 459 L 473.5 456 Z M 478 473 L 476 474 L 473 478 L 474 485 L 478 487 L 485 486 L 487 483 L 486 476 Q 484 472 478 473 Z " /><path fill="rgb(140,63,249)" stroke="rgb(140,63,249)" stroke-width="1" opacity="0.9803921568627451" d="M 328 472 L 439.5 472 L 440 472.5 L 440 488 L 328.5 488 L 328 487.5 L 328 472 Z " /></svg>